<svg data-v-423bf9ae="" xmlns="http://www.w3.org/2000/svg" viewBox="0 0 514 90" class="iconLeft"><!----><!----><defs data-v-423bf9ae=""><linearGradient data-v-423bf9ae="" gradientTransform="rotate(25)" id="fddb4701-1dd3-4996-b416-0ce522e1126b" x1="0%" y1="0%" x2="100%" y2="0%"><stop data-v-423bf9ae="" offset="0%" style="stop-color: rgb(252, 95, 255); stop-opacity: 1;"></stop><stop data-v-423bf9ae="" offset="100%" style="stop-color: rgb(134, 237, 255); stop-opacity: 1;"></stop></linearGradient></defs><g data-v-423bf9ae="" id="e64eaf3b-4af6-4eff-b6fb-92c967370e22" fill="url(#fddb4701-1dd3-4996-b416-0ce522e1126b)" transform="matrix(5.758157347474804,0,0,5.758157347474804,134.41153928773784,-15.633396646507705)"><path d="M-0.15 14.44L-0.36 14.23L-0.18 14.10L-0.16 13.81L-0.16 13.81Q0.18 12.97 0.54 12.21L0.54 12.21L0.54 12.21Q0.90 11.44 1.30 10.64L1.30 10.64L1.30 10.64Q1.42 10.38 1.55 10.12L1.55 10.12L1.55 10.12Q1.68 9.86 1.80 9.58L1.80 9.58L1.80 9.58Q1.79 9.53 1.79 9.47L1.79 9.47L1.79 9.47Q1.79 9.41 1.82 9.32L1.82 9.32L1.82 9.32Q2.01 9.05 2.13 8.83L2.13 8.83L2.13 8.83Q2.24 8.61 2.35 8.38L2.35 8.38L2.35 8.38Q2.47 8.11 2.62 7.83L2.62 7.83L2.62 7.83Q2.76 7.56 2.98 7.30L2.98 7.30L3.08 7.16L3.23 7.18L3.23 7.18Q3.28 7.15 3.34 7.13L3.34 7.13L3.34 7.13Q3.40 7.11 3.50 7.11L3.50 7.11L3.75 7.15L3.75 7.15Q4.20 6.95 4.55 6.56L4.55 6.56L4.55 6.56Q4.89 6.17 5.25 5.62L5.25 5.62L5.41 5.39L5.63 5.52L5.63 5.52Q5.70 5.56 5.85 5.61L5.85 5.61L5.85 5.61Q6.00 5.65 6.17 5.70L6.17 5.70L6.17 5.70Q6.45 5.77 6.73 5.86L6.73 5.86L6.73 5.86Q7 5.95 7.15 6.10L7.15 6.10L7.22 6.22L7.22 6.22Q7.25 6.37 7.27 6.49L7.27 6.49L7.27 6.49Q7.29 6.62 7.31 6.74L7.31 6.74L7.31 6.74Q7.37 7.03 7.41 7.31L7.41 7.31L7.41 7.31Q7.45 7.59 7.46 7.93L7.46 7.93L7.46 7.93Q7.53 8.20 7.59 8.48L7.59 8.48L7.59 8.48Q7.66 8.76 7.71 9.04L7.71 9.04L7.71 9.04Q7.78 9.43 7.86 9.80L7.86 9.80L7.86 9.80Q7.94 10.16 8.08 10.49L8.08 10.49L8.08 10.49Q8.22 10.49 8.24 10.50L8.24 10.50L8.24 10.50Q8.41 10.43 8.63 10.42L8.63 10.42L8.80 10.40L8.86 10.57L8.86 10.57Q8.89 10.61 8.93 10.65L8.93 10.65L8.93 10.65Q8.97 10.69 9.02 10.73L9.02 10.73L9.02 10.73Q9.24 10.75 9.34 10.82L9.34 10.82L9.34 10.82Q9.45 10.90 9.52 10.96L9.52 10.96L9.52 10.96Q9.54 10.99 9.58 11.03L9.58 11.03L9.58 11.03Q9.63 11.06 9.65 11.07L9.65 11.07L9.90 11.17L9.76 11.43L9.76 11.43Q9.61 11.72 9.30 11.99L9.30 11.99L9.30 11.99Q9.00 12.26 8.61 12.44L8.61 12.44L8.61 12.44Q8.64 12.54 8.65 12.62L8.65 12.62L8.65 12.62Q8.65 12.70 8.68 12.81L8.68 12.81L8.68 12.81Q8.74 13.08 8.77 13.38L8.77 13.38L8.77 13.38Q8.80 13.67 8.76 13.99L8.76 13.99L8.76 13.99Q8.63 14.34 8.44 14.62L8.44 14.62L8.44 14.62Q8.26 14.90 8.00 15.13L8.00 15.13L8.00 15.13Q7.75 15.35 7.44 15.50L7.44 15.50L7.44 15.50Q7.12 15.64 6.78 15.65L6.78 15.65L6.78 15.65Q6.59 15.61 6.50 15.56L6.50 15.56L6.50 15.56Q6.41 15.50 6.34 15.45L6.34 15.45L6.34 15.45Q6.23 15.37 6.17 15.34L6.17 15.34L5.99 15.26L6.04 15.05L6.04 15.05Q6.08 14.94 6.04 14.86L6.04 14.86L6.04 14.86Q5.99 14.78 5.84 14.64L5.84 14.64L5.84 14.64Q5.78 14.60 5.74 14.55L5.74 14.55L5.74 14.55Q5.70 14.51 5.65 14.45L5.65 14.45L5.37 14.14L5.82 14.01L5.82 14.01Q6.23 13.90 6.37 13.73L6.37 13.73L6.37 13.73Q6.51 13.56 6.48 13.13L6.48 13.13L6.48 13.13Q6.14 13.06 5.92 13.10L5.92 13.10L5.92 13.10Q5.70 13.15 5.48 13.21L5.48 13.21L5.48 13.21Q5.17 13.29 4.87 13.35L4.87 13.35L4.87 13.35Q4.57 13.41 4.21 13.41L4.21 13.41L4.21 13.41Q3.98 13.41 3.72 13.37L3.72 13.37L3.57 13.36L3.53 13.21L3.53 13.21Q3.53 13.18 3.49 13.15L3.49 13.15L3.49 13.15Q3.46 13.11 3.43 13.08L3.43 13.08L3.43 13.08Q3.36 13.00 3.27 12.87L3.27 12.87L3.27 12.87Q3.17 12.73 3.23 12.52L3.23 12.52L3.23 12.52Q3.13 12.37 3.12 12.21L3.12 12.21L3.12 12.21Q3.06 12.32 3.03 12.42L3.03 12.42L3.03 12.42Q2.99 12.52 2.97 12.62L2.97 12.62L2.91 12.80L2.73 12.82L2.73 12.82Q2.71 12.85 2.69 12.91L2.69 12.91L2.69 12.91Q2.67 12.96 2.68 12.99L2.68 12.99L2.73 13.14L2.60 13.26L2.60 13.26Q2.57 13.30 2.53 13.33L2.53 13.33L2.53 13.33Q2.49 13.36 2.46 13.38L2.46 13.38L2.46 13.38Q2.43 13.54 2.39 13.67L2.39 13.67L2.39 13.67Q2.34 13.81 2.28 13.95L2.28 13.95L2.28 13.95Q2.21 14.16 2.15 14.37L2.15 14.37L2.15 14.37Q2.09 14.57 2.09 14.78L2.09 14.78L2.04 14.96L2.04 14.96Q1.97 15.07 1.87 15.12L1.87 15.12L1.87 15.12Q1.76 15.18 1.67 15.22L1.67 15.22L1.67 15.22Q1.53 15.27 1.48 15.33L1.48 15.33L1.44 15.50L1.23 15.53L1.23 15.53Q1.05 15.57 0.98 15.59L0.98 15.59L0.98 15.59Q0.90 15.60 0.81 15.60L0.81 15.60L0.63 15.59L0.63 15.59Q0.46 15.42 0.36 15.33L0.36 15.33L0.36 15.33Q0.26 15.24 0.12 15.18L0.12 15.18L0.04 15.07L0.04 15.07Q-0.01 14.96-0.03 14.87L-0.03 14.87L-0.03 14.87Q-0.04 14.78-0.07 14.68L-0.07 14.68L-0.07 14.68Q-0.10 14.51-0.15 14.44L-0.15 14.44ZM4.02 10.66L4.01 10.68L4.01 10.68Q3.81 10.95 3.64 11.25L3.64 11.25L3.64 11.25Q3.73 11.24 3.82 11.24L3.82 11.24L3.82 11.24Q3.91 11.24 4.01 11.22L4.01 11.22L4.01 11.22Q4.48 11.20 4.89 11.16L4.89 11.16L4.89 11.16Q5.30 11.12 5.78 11.02L5.78 11.02L5.78 11.02Q5.67 10.51 5.54 9.99L5.54 9.99L5.54 9.99Q5.41 9.46 5.26 8.93L5.26 8.93L5.20 9.06L5.20 9.06Q4.85 9.43 4.54 9.86L4.54 9.86L4.54 9.86Q4.22 10.28 4.02 10.66L4.02 10.66ZM10.35 10.39L10.35 10.39L10.35 10.39Q10.28 10.01 10.31 9.60L10.31 9.60L10.31 9.60Q10.34 9.19 10.34 8.80L10.34 8.80L10.34 8.80Q10.34 8.44 10.29 8.02L10.29 8.02L10.29 8.02Q10.24 7.60 10.21 7.22L10.21 7.22L10.21 7.22Q10.17 6.84 10.18 6.51L10.18 6.51L10.18 6.51Q10.19 6.19 10.27 6.02L10.27 6.02L10.27 6.02Q10.38 5.81 10.54 5.69L10.54 5.69L10.54 5.69Q10.71 5.58 10.86 5.43L10.86 5.43L10.86 5.43Q11.03 5.46 11.18 5.53L11.18 5.53L11.18 5.53Q11.32 5.61 11.42 5.72L11.42 5.72L11.42 5.72Q11.53 5.84 11.57 5.96L11.57 5.96L11.57 5.96Q11.62 6.08 11.59 6.21L11.59 6.21L11.59 6.21Q11.94 6.41 12.15 6.76L12.15 6.76L12.15 6.76Q12.36 7.11 12.48 7.53L12.48 7.53L12.48 7.53Q12.59 7.94 12.64 8.41L12.64 8.41L12.64 8.41Q12.69 8.87 12.72 9.32L12.72 9.32L12.72 9.32Q12.76 9.78 12.79 10.18L12.79 10.18L12.79 10.18Q12.82 10.58 12.92 10.88L12.92 10.88L12.92 10.88Q13.52 10.01 13.94 9.33L13.94 9.33L13.94 9.33Q14.36 8.65 14.78 8.03L14.78 8.03L14.78 8.03Q15.20 7.41 15.73 6.77L15.73 6.77L15.73 6.77Q16.26 6.13 17.08 5.32L17.08 5.32L17.08 5.32Q17.25 5.35 17.35 5.39L17.35 5.39L17.35 5.39Q17.45 5.43 17.54 5.47L17.54 5.47L17.54 5.47Q17.64 5.51 17.75 5.53L17.75 5.53L17.75 5.53Q17.86 5.55 18.05 5.52L18.05 5.52L18.05 5.52Q18.12 5.69 18.15 5.76L18.15 5.76L18.15 5.76Q18.18 5.84 18.21 5.91L18.21 5.91L18.21 5.91Q18.24 5.97 18.28 6.08L18.28 6.08L18.28 6.08Q18.32 6.19 18.40 6.41L18.40 6.41L18.40 6.41Q18.44 6.47 18.44 6.56L18.44 6.56L18.44 6.56Q18.43 6.64 18.42 6.71L18.42 6.71L18.42 6.71Q18.40 6.78 18.41 6.82L18.41 6.82L18.41 6.82Q18.42 6.86 18.50 6.82L18.50 6.82L18.50 6.82Q18.44 7.05 18.32 7.24L18.32 7.24L18.32 7.24Q18.20 7.42 18.21 7.68L18.21 7.68L18.21 7.68Q17.84 8.18 17.39 8.70L17.39 8.70L17.39 8.70Q16.94 9.21 16.49 9.78L16.49 9.78L16.49 9.78Q16.04 10.35 15.62 10.96L15.62 10.96L15.62 10.96Q15.20 11.57 14.92 12.25L14.92 12.25L14.92 12.25Q14.83 12.25 14.79 12.29L14.79 12.29L14.79 12.29Q14.75 12.33 14.72 12.39L14.72 12.39L14.72 12.39Q14.68 12.44 14.65 12.50L14.65 12.50L14.65 12.50Q14.62 12.55 14.53 12.55L14.53 12.55L14.53 12.55Q14.51 12.99 14.21 13.38L14.21 13.38L14.21 13.38Q13.92 13.77 13.62 14.04L13.62 14.04L13.62 14.04Q13.64 14.15 13.64 14.22L13.64 14.22L13.64 14.22Q13.64 14.29 13.63 14.36L13.63 14.36L13.63 14.36Q13.62 14.42 13.61 14.50L13.61 14.50L13.61 14.50Q13.60 14.57 13.62 14.68L13.62 14.68L13.62 14.68Q13.49 15.01 13.30 15.23L13.30 15.23L13.30 15.23Q13.10 15.45 12.87 15.56L12.87 15.56L12.87 15.56Q12.63 15.67 12.39 15.65L12.39 15.65L12.39 15.65Q12.14 15.63 11.92 15.48L11.92 15.48L11.92 15.48Q11.83 15.42 11.76 15.33L11.76 15.33L11.76 15.33Q11.69 15.23 11.61 15.14L11.61 15.14L11.61 15.14Q11.54 15.05 11.46 14.98L11.46 14.98L11.46 14.98Q11.39 14.90 11.28 14.88L11.28 14.88L11.28 14.88Q11.31 14.74 11.29 14.59L11.29 14.59L11.29 14.59Q11.27 14.44 11.22 14.31L11.22 14.31L11.22 14.31Q11.18 14.19 11.13 14.11L11.13 14.11L11.13 14.11Q11.07 14.03 11.02 14.03L11.02 14.03L11.02 14.03Q10.96 13.69 10.88 13.28L10.88 13.28L10.88 13.28Q10.79 12.88 10.70 12.48L10.70 12.48L10.70 12.48Q10.61 12.09 10.55 11.70L10.55 11.70L10.55 11.70Q10.50 11.32 10.51 10.99L10.51 10.99L10.51 10.99Q10.53 10.83 10.45 10.70L10.45 10.70L10.45 10.70Q10.38 10.57 10.35 10.39ZM16.87 14.44L16.67 14.23L16.84 14.10L16.86 13.81L16.86 13.81Q17.20 12.97 17.56 12.21L17.56 12.21L17.56 12.21Q17.92 11.44 18.32 10.64L18.32 10.64L18.32 10.64Q18.44 10.38 18.57 10.12L18.57 10.12L18.57 10.12Q18.70 9.86 18.83 9.58L18.83 9.58L18.83 9.58Q18.81 9.53 18.81 9.47L18.81 9.47L18.81 9.47Q18.81 9.41 18.84 9.32L18.84 9.32L18.84 9.32Q19.03 9.05 19.15 8.83L19.15 8.83L19.15 8.83Q19.26 8.61 19.37 8.38L19.37 8.38L19.37 8.38Q19.50 8.11 19.64 7.83L19.64 7.83L19.64 7.83Q19.78 7.56 20.00 7.30L20.00 7.30L20.10 7.16L20.25 7.18L20.25 7.18Q20.30 7.15 20.36 7.13L20.36 7.13L20.36 7.13Q20.43 7.11 20.52 7.11L20.52 7.11L20.77 7.15L20.77 7.15Q21.22 6.95 21.57 6.56L21.57 6.56L21.57 6.56Q21.92 6.17 22.27 5.62L22.27 5.62L22.44 5.39L22.65 5.52L22.65 5.52Q22.72 5.56 22.87 5.61L22.87 5.61L22.87 5.61Q23.02 5.65 23.19 5.70L23.19 5.70L23.19 5.70Q23.47 5.77 23.75 5.86L23.75 5.86L23.75 5.86Q24.02 5.95 24.17 6.10L24.17 6.10L24.24 6.22L24.24 6.22Q24.27 6.37 24.29 6.49L24.29 6.49L24.29 6.49Q24.31 6.62 24.34 6.74L24.34 6.74L24.34 6.74Q24.39 7.03 24.43 7.31L24.43 7.31L24.43 7.31Q24.47 7.59 24.49 7.93L24.49 7.93L24.49 7.93Q24.55 8.20 24.62 8.48L24.62 8.48L24.62 8.48Q24.68 8.76 24.73 9.04L24.73 9.04L24.73 9.04Q24.80 9.43 24.88 9.80L24.88 9.80L24.88 9.80Q24.96 10.16 25.10 10.49L25.10 10.49L25.10 10.49Q25.24 10.49 25.27 10.50L25.27 10.50L25.27 10.50Q25.43 10.43 25.65 10.42L25.65 10.42L25.83 10.40L25.88 10.57L25.88 10.57Q25.91 10.61 25.95 10.65L25.95 10.65L25.95 10.65Q25.99 10.69 26.04 10.73L26.04 10.73L26.04 10.73Q26.26 10.75 26.37 10.82L26.37 10.82L26.37 10.82Q26.47 10.90 26.54 10.96L26.54 10.96L26.54 10.96Q26.56 10.99 26.61 11.03L26.61 11.03L26.61 11.03Q26.65 11.06 26.67 11.07L26.67 11.07L26.92 11.17L26.78 11.43L26.78 11.43Q26.63 11.72 26.33 11.99L26.33 11.99L26.33 11.99Q26.02 12.26 25.63 12.44L25.63 12.44L25.63 12.44Q25.66 12.54 25.67 12.62L25.67 12.62L25.67 12.62Q25.68 12.70 25.70 12.81L25.70 12.81L25.70 12.81Q25.76 13.08 25.79 13.38L25.79 13.38L25.79 13.38Q25.83 13.67 25.79 13.99L25.79 13.99L25.79 13.99Q25.65 14.34 25.46 14.62L25.46 14.62L25.46 14.62Q25.28 14.90 25.03 15.13L25.03 15.13L25.03 15.13Q24.77 15.35 24.46 15.50L24.46 15.50L24.46 15.50Q24.14 15.64 23.80 15.65L23.80 15.65L23.80 15.65Q23.61 15.61 23.52 15.56L23.52 15.56L23.52 15.56Q23.43 15.50 23.37 15.45L23.37 15.45L23.37 15.45Q23.26 15.37 23.19 15.34L23.19 15.34L23.01 15.26L23.06 15.05L23.06 15.05Q23.11 14.94 23.06 14.86L23.06 14.86L23.06 14.86Q23.01 14.78 22.86 14.64L22.86 14.64L22.86 14.64Q22.80 14.60 22.76 14.55L22.76 14.55L22.76 14.55Q22.72 14.51 22.67 14.45L22.67 14.45L22.39 14.14L22.85 14.01L22.85 14.01Q23.26 13.90 23.39 13.73L23.39 13.73L23.39 13.73Q23.53 13.56 23.50 13.13L23.50 13.13L23.50 13.13Q23.16 13.06 22.94 13.10L22.94 13.10L22.94 13.10Q22.72 13.15 22.50 13.21L22.50 13.21L22.50 13.21Q22.19 13.29 21.89 13.35L21.89 13.35L21.89 13.35Q21.59 13.41 21.23 13.41L21.23 13.41L21.23 13.41Q21 13.41 20.74 13.37L20.74 13.37L20.59 13.36L20.55 13.21L20.55 13.21Q20.55 13.18 20.51 13.15L20.51 13.15L20.51 13.15Q20.48 13.11 20.45 13.08L20.45 13.08L20.45 13.08Q20.38 13.00 20.29 12.87L20.29 12.87L20.29 12.87Q20.19 12.73 20.25 12.52L20.25 12.52L20.25 12.52Q20.15 12.37 20.14 12.21L20.14 12.21L20.14 12.21Q20.08 12.32 20.05 12.42L20.05 12.42L20.05 12.42Q20.02 12.52 19.99 12.62L19.99 12.62L19.93 12.80L19.76 12.82L19.76 12.82Q19.73 12.85 19.71 12.91L19.71 12.91L19.71 12.91Q19.69 12.96 19.70 12.99L19.70 12.99L19.76 13.14L19.62 13.26L19.62 13.26Q19.59 13.30 19.55 13.33L19.55 13.33L19.55 13.33Q19.51 13.36 19.48 13.38L19.48 13.38L19.48 13.38Q19.46 13.54 19.41 13.67L19.41 13.67L19.41 13.67Q19.36 13.81 19.30 13.95L19.30 13.95L19.30 13.95Q19.24 14.16 19.17 14.37L19.17 14.37L19.17 14.37Q19.11 14.57 19.11 14.78L19.11 14.78L19.06 14.96L19.06 14.96Q18.99 15.07 18.89 15.12L18.89 15.12L18.89 15.12Q18.79 15.18 18.69 15.22L18.69 15.22L18.69 15.22Q18.55 15.27 18.50 15.33L18.50 15.33L18.46 15.50L18.25 15.53L18.25 15.53Q18.07 15.57 18.00 15.59L18.00 15.59L18.00 15.59Q17.92 15.60 17.83 15.60L17.83 15.60L17.65 15.59L17.65 15.59Q17.49 15.42 17.38 15.33L17.38 15.33L17.38 15.33Q17.28 15.24 17.14 15.18L17.14 15.18L17.06 15.07L17.06 15.07Q17.01 14.96 16.99 14.87L16.99 14.87L16.99 14.87Q16.98 14.78 16.95 14.68L16.95 14.68L16.95 14.68Q16.93 14.51 16.87 14.44L16.87 14.44ZM21.04 10.66L21.03 10.68L21.03 10.68Q20.84 10.95 20.66 11.25L20.66 11.25L20.66 11.25Q20.75 11.24 20.84 11.24L20.84 11.24L20.84 11.24Q20.93 11.24 21.03 11.22L21.03 11.22L21.03 11.22Q21.51 11.20 21.92 11.16L21.92 11.16L21.92 11.16Q22.33 11.12 22.80 11.02L22.80 11.02L22.80 11.02Q22.70 10.51 22.57 9.99L22.57 9.99L22.57 9.99Q22.44 9.46 22.29 8.93L22.29 8.93L22.22 9.06L22.22 9.06Q21.88 9.43 21.56 9.86L21.56 9.86L21.56 9.86Q21.25 10.28 21.04 10.66L21.04 10.66ZM33.96 11.46L33.96 11.46L33.96 11.46Q34.17 11.48 34.25 11.55L34.25 11.55L34.25 11.55Q34.34 11.62 34.38 11.72L34.38 11.72L34.38 11.72Q34.41 11.83 34.40 11.95L34.40 11.95L34.40 11.95Q34.38 12.07 34.38 12.20L34.38 12.20L34.38 12.20Q34.04 12.43 33.44 12.52L33.44 12.52L33.44 12.52Q32.84 12.61 32.18 12.64L32.18 12.64L32.18 12.64Q31.53 12.67 30.91 12.67L30.91 12.67L30.91 12.67Q30.30 12.67 29.94 12.71L29.94 12.71L29.94 12.71Q29.20 12.80 28.80 12.87L28.80 12.87L28.80 12.87Q28.40 12.95 28.25 13.02L28.25 13.02L28.25 13.02Q27.99 13.00 27.84 12.92L27.84 12.92L27.84 12.92Q27.69 12.84 27.59 12.72L27.59 12.72L27.59 12.72Q27.49 12.61 27.43 12.46L27.43 12.46L27.43 12.46Q27.36 12.30 27.26 12.14L27.26 12.14L27.26 12.14Q27.32 12.03 27.29 11.83L27.29 11.83L27.29 11.83Q27.26 11.62 27.13 11.51L27.13 11.51L27.13 11.51Q27.23 11.50 27.29 11.35L27.29 11.35L27.29 11.35Q27.34 11.21 27.29 11.14L27.29 11.14L27.29 11.14Q27.51 11.09 27.76 11.07L27.76 11.07L27.76 11.07Q28.01 11.05 28.26 11.03L28.26 11.03L28.26 11.03Q28.51 11.02 28.73 10.99L28.73 10.99L28.73 10.99Q28.96 10.95 29.12 10.87L29.12 10.87L29.12 10.87Q29.80 10.86 30.54 10.83L30.54 10.83L30.54 10.83Q31.27 10.80 31.91 10.77L31.91 10.77L31.91 10.77Q32.14 10.84 32.46 10.85L32.46 10.85L32.46 10.85Q32.77 10.86 33.07 10.89L33.07 10.89L33.07 10.89Q33.37 10.92 33.62 11.05L33.62 11.05L33.62 11.05Q33.87 11.17 33.96 11.46ZM41.07 15.56L41.07 15.56L41.07 15.56Q40.85 15.57 40.53 15.54L40.53 15.54L40.53 15.54Q40.21 15.52 39.94 15.64L39.94 15.64L39.94 15.64Q39.21 15.61 38.46 15.46L38.46 15.46L38.46 15.46Q37.71 15.31 37.08 15.09L37.08 15.09L37.08 15.09Q36.94 14.94 36.80 14.81L36.80 14.81L36.80 14.81Q36.67 14.68 36.44 14.63L36.44 14.63L36.44 14.63Q36.11 14.37 35.90 13.99L35.90 13.99L35.90 13.99Q35.70 13.62 35.57 13.19L35.57 13.19L35.57 13.19Q35.45 12.77 35.41 12.33L35.41 12.33L35.41 12.33Q35.37 11.88 35.38 11.47L35.38 11.47L35.38 11.47Q35.59 10.86 35.96 10.41L35.96 10.41L35.96 10.41Q36.34 9.97 36.74 9.53L36.74 9.53L36.74 9.53Q36.91 9.45 37.00 9.36L37.00 9.36L37.00 9.36Q37.09 9.27 37.19 9.19L37.19 9.19L37.19 9.19Q37.30 9.12 37.40 9.04L37.40 9.04L37.40 9.04Q37.50 8.97 37.58 8.86L37.58 8.86L37.58 8.86Q37.87 8.79 38.08 8.66L38.08 8.66L38.08 8.66Q38.29 8.53 38.50 8.39L38.50 8.39L38.50 8.39Q38.71 8.24 38.92 8.12L38.92 8.12L38.92 8.12Q39.14 8.00 39.43 7.93L39.43 7.93L39.43 7.93Q39.54 7.81 39.69 7.73L39.69 7.73L39.69 7.73Q39.84 7.66 40.00 7.58L40.00 7.58L40.00 7.58Q40.15 7.51 40.30 7.42L40.30 7.42L40.30 7.42Q40.44 7.34 40.52 7.21L40.52 7.21L40.52 7.21Q40.59 7.31 40.71 7.28L40.71 7.28L40.71 7.28Q40.84 7.25 40.95 7.21L40.95 7.21L40.95 7.21Q41.02 7.19 41.06 7.23L41.06 7.23L41.06 7.23Q41.11 7.27 41.15 7.31L41.15 7.31L41.15 7.31Q41.19 7.36 41.23 7.36L41.23 7.36L41.23 7.36Q41.26 7.37 41.29 7.30L41.29 7.30L41.29 7.30Q41.36 7.30 41.33 7.37L41.33 7.37L41.33 7.37Q41.30 7.44 41.29 7.46L41.29 7.46L41.29 7.46Q41.40 7.45 41.47 7.51L41.47 7.51L41.47 7.51Q41.55 7.57 41.71 7.59L41.71 7.59L41.71 7.59Q41.77 7.66 41.74 7.69L41.74 7.69L41.74 7.69Q41.71 7.72 41.71 7.81L41.71 7.81L41.71 7.81Q42.12 7.93 42.23 8.20L42.23 8.20L42.23 8.20Q42.34 8.46 42.25 8.75L42.25 8.75L42.25 8.75Q42.15 9.04 41.90 9.28L41.90 9.28L41.90 9.28Q41.66 9.53 41.37 9.61L41.37 9.61L41.37 9.61Q40.71 9.79 40.13 10.00L40.13 10.00L40.13 10.00Q39.55 10.21 39.18 10.62L39.18 10.62L39.18 10.62Q38.86 10.72 38.60 10.88L38.60 10.88L38.60 10.88Q38.35 11.03 38.12 11.23L38.12 11.23L38.12 11.23Q37.90 11.43 37.70 11.64L37.70 11.64L37.70 11.64Q37.50 11.85 37.28 12.06L37.28 12.06L37.28 12.06Q37.30 12.25 37.22 12.35L37.22 12.35L37.22 12.35Q37.15 12.46 37.08 12.56L37.08 12.56L37.08 12.56Q37.11 12.77 37.17 12.93L37.17 12.93L37.17 12.93Q37.24 13.08 37.32 13.23L37.32 13.23L37.32 13.23Q38.23 13.51 39.25 13.58L39.25 13.58L39.25 13.58Q40.26 13.64 41.29 13.66L41.29 13.66L41.29 13.66Q41.38 13.79 41.51 13.91L41.51 13.91L41.51 13.91Q41.64 14.03 41.75 14.16L41.75 14.16L41.75 14.16Q41.86 14.29 41.93 14.44L41.93 14.44L41.93 14.44Q42 14.60 41.96 14.83L41.96 14.83L41.96 14.83Q41.77 15.04 41.54 15.21L41.54 15.21L41.54 15.21Q41.30 15.38 41.07 15.56ZM50.54 11.43L50.54 11.43L50.54 11.43Q50.53 11.59 50.57 11.74L50.57 11.74L50.57 11.74Q50.61 11.89 50.67 12.04L50.67 12.04L50.67 12.04Q50.74 12.18 50.79 12.33L50.79 12.33L50.79 12.33Q50.85 12.48 50.87 12.63L50.87 12.63L50.87 12.63Q50.90 12.82 50.87 13.05L50.87 13.05L50.87 13.05Q50.85 13.28 50.78 13.49L50.78 13.49L50.78 13.49Q50.71 13.70 50.60 13.87L50.60 13.87L50.60 13.87Q50.49 14.04 50.34 14.12L50.34 14.12L50.34 14.12Q50.15 14.37 49.88 14.51L49.88 14.51L49.88 14.51Q49.60 14.64 49.37 14.83L49.37 14.83L49.37 14.83Q49.22 14.93 49.03 14.97L49.03 14.97L49.03 14.97Q48.85 15.01 48.66 15.05L48.66 15.05L48.66 15.05Q48.51 15.13 48.30 15.22L48.30 15.22L48.30 15.22Q48.10 15.31 47.88 15.39L47.88 15.39L47.88 15.39Q47.66 15.46 47.44 15.50L47.44 15.50L47.44 15.50Q47.22 15.53 47.06 15.52L47.06 15.52L47.06 15.52Q46.65 15.67 46.26 15.72L46.26 15.72L46.26 15.72Q45.87 15.76 45.35 15.65L45.35 15.65L45.35 15.65Q44.86 15.72 44.44 15.61L44.44 15.61L44.44 15.61Q44.02 15.50 43.70 15.26L43.70 15.26L43.70 15.26Q43.38 15.03 43.14 14.69L43.14 14.69L43.14 14.69Q42.90 14.36 42.75 13.99L42.75 13.99L42.75 13.99Q42.64 13.21 42.81 12.57L42.81 12.57L42.81 12.57Q42.97 11.94 43.28 11.40L43.28 11.40L43.28 11.40Q43.59 10.86 43.98 10.40L43.98 10.40L43.98 10.40Q44.38 9.94 44.75 9.50L44.75 9.50L44.75 9.50Q44.83 9.53 44.88 9.50L44.88 9.50L44.88 9.50Q44.93 9.46 44.97 9.40L44.97 9.40L44.97 9.40Q45.01 9.34 45.06 9.28L45.06 9.28L45.06 9.28Q45.10 9.23 45.17 9.21L45.17 9.21L45.17 9.21Q45.27 9.01 45.45 8.91L45.45 8.91L45.45 8.91Q45.64 8.80 45.75 8.61L45.75 8.61L45.75 8.61Q45.87 8.59 45.95 8.53L45.95 8.53L45.95 8.53Q46.03 8.48 46.11 8.41L46.11 8.41L46.11 8.41Q46.18 8.34 46.27 8.28L46.27 8.28L46.27 8.28Q46.35 8.22 46.46 8.19L46.46 8.19L46.46 8.04L46.46 8.04Q46.70 7.93 46.82 7.79L46.82 7.79L46.82 7.79Q46.94 7.64 47.10 7.44L47.10 7.44L47.10 7.44Q47.22 7.42 47.30 7.42L47.30 7.42L47.30 7.42Q47.37 7.42 47.52 7.40L47.52 7.40L47.52 7.40Q47.63 7.21 47.72 7.11L47.72 7.11L47.72 7.11Q47.81 7.01 47.99 6.90L47.99 6.90L47.99 6.90Q48.15 6.99 48.35 7.01L48.35 7.01L48.35 7.01Q48.55 7.04 48.70 7.19L48.70 7.19L48.70 7.19Q48.71 7.33 48.78 7.40L48.78 7.40L48.78 7.40Q48.85 7.48 48.93 7.54L48.93 7.54L48.93 7.54Q49.01 7.60 49.09 7.67L49.09 7.67L49.09 7.67Q49.16 7.74 49.19 7.86L49.19 7.86L49.19 7.86Q49.25 7.88 49.27 7.85L49.27 7.85L49.27 7.85Q49.29 7.82 49.34 7.83L49.34 7.83L49.34 7.83Q49.38 8.03 49.44 8.09L49.44 8.09L49.44 8.09Q49.49 8.15 49.55 8.33L49.55 8.33L49.55 8.33Q49.48 8.46 49.44 8.61L49.44 8.61L49.44 8.61Q49.41 8.75 49.27 8.82L49.27 8.82L49.27 8.82Q49.26 8.91 49.33 8.92L49.33 8.92L49.33 8.92Q49.40 8.93 49.41 9.00L49.41 9.00L49.41 9.00Q49.42 9.12 49.37 9.17L49.37 9.17L49.37 9.17Q49.70 9.71 49.96 10.30L49.96 10.30L49.96 10.30Q50.22 10.90 50.54 11.43ZM48.84 12.73L48.84 12.73L48.84 12.73Q48.89 12.58 48.98 12.48L48.98 12.48L48.98 12.48Q49.07 12.39 49.08 12.20L49.08 12.20L49.08 12.20Q49.01 12.09 49 12.02L49 12.02L49 12.02Q48.99 11.96 48.99 11.83L48.99 11.83L48.99 11.83Q48.69 11.40 48.47 10.92L48.47 10.92L48.47 10.92Q48.25 10.43 47.97 10.01L47.97 10.01L47.97 10.01Q47.95 10.06 47.88 10.12L47.88 10.12L47.88 10.12Q47.81 10.17 47.73 10.09L47.73 10.09L47.73 10.09Q47.70 10.20 47.63 10.25L47.63 10.25L47.63 10.25Q47.56 10.29 47.48 10.29L47.48 10.29L47.48 10.29Q47.40 10.28 47.31 10.25L47.31 10.25L47.31 10.25Q47.22 10.21 47.15 10.16L47.15 10.16L47.15 10.16Q46.76 10.47 46.36 10.77L46.36 10.77L46.36 10.77Q45.96 11.07 45.65 11.47L45.65 11.47L45.65 11.47Q45.60 11.50 45.58 11.49L45.58 11.49L45.58 11.49Q45.57 11.48 45.50 11.51L45.50 11.51L45.50 11.51Q45.39 11.77 45.23 11.98L45.23 11.98L45.23 11.98Q45.08 12.20 44.93 12.41L44.93 12.41L44.93 12.41Q44.78 12.63 44.67 12.88L44.67 12.88L44.67 12.88Q44.56 13.13 44.54 13.45L44.54 13.45L44.54 13.45Q44.78 13.64 45.09 13.69L45.09 13.69L45.09 13.69Q45.40 13.73 45.74 13.70L45.74 13.70L45.74 13.70Q46.07 13.67 46.40 13.61L46.40 13.61L46.40 13.61Q46.72 13.55 46.99 13.55L46.99 13.55L46.99 13.55Q47.56 13.41 47.97 13.19L47.97 13.19L47.97 13.19Q48.38 12.96 48.84 12.73ZM58.12 11.84L58.12 11.84L58.12 11.84Q58.11 11.91 58.09 11.96L58.09 11.96L58.09 11.96Q58.08 12.00 58.06 12.04L58.06 12.04L58.06 12.04Q58.05 12.09 58.05 12.15L58.05 12.15L58.05 12.15Q58.05 12.21 58.05 12.30L58.05 12.30L58.05 12.30Q57.64 13.03 57.02 13.52L57.02 13.52L57.02 13.52Q56.40 14.01 55.65 14.39L55.65 14.39L55.65 14.39Q54.91 14.77 54.10 15.07L54.10 15.07L54.10 15.07Q53.29 15.38 52.53 15.74L52.53 15.74L52.53 15.74Q52.20 15.65 52.03 15.46L52.03 15.46L52.03 15.46Q51.86 15.27 51.77 15.02L51.77 15.02L51.77 15.02Q51.68 14.77 51.65 14.46L51.65 14.46L51.65 14.46Q51.61 14.15 51.58 13.82L51.58 13.82L51.58 13.82Q51.63 13.67 51.70 13.57L51.70 13.57L51.70 13.57Q51.78 13.47 51.78 13.28L51.78 13.28L51.78 13.28Q51.88 12.92 51.99 12.58L51.99 12.58L51.99 12.58Q52.10 12.24 52.13 11.88L52.13 11.88L52.13 11.88Q52.17 11.77 52.28 11.73L52.28 11.73L52.28 11.73Q52.35 11.07 52.29 10.40L52.29 10.40L52.29 10.40Q52.23 9.72 52.06 9.13L52.06 9.13L52.06 9.13Q52.08 9.00 52.10 8.93L52.10 8.93L52.10 8.93Q52.12 8.87 52.09 8.85L52.09 8.85L52.09 8.85Q52.08 8.74 52.17 8.74L52.17 8.74L52.17 8.74Q52.25 8.74 52.35 8.74L52.35 8.74L52.35 8.74Q52.35 8.53 52.27 8.33L52.27 8.33L52.27 8.33Q52.20 8.12 52.13 7.86L52.13 7.86L52.13 7.86Q52.23 7.66 52.25 7.46L52.25 7.46L52.25 7.46Q52.28 7.26 52.38 7.11L52.38 7.11L52.38 7.11Q53.12 7.34 53.79 7.67L53.79 7.67L53.79 7.67Q54.47 8.00 55.13 8.15L55.13 8.15L55.13 8.15Q55.62 8.50 56.14 8.85L56.14 8.85L56.14 8.85Q56.66 9.20 57.08 9.62L57.08 9.62L57.08 9.62Q57.50 10.04 57.79 10.57L57.79 10.57L57.79 10.57Q58.08 11.10 58.12 11.84ZM54.88 12.59L54.88 12.59L54.88 12.59Q55.17 12.48 55.45 12.36L55.45 12.36L55.45 12.36Q55.73 12.24 55.97 12.08L55.97 12.08L55.97 12.08Q56.21 11.92 56.40 11.72L56.40 11.72L56.40 11.72Q56.59 11.51 56.71 11.22L56.71 11.22L56.71 11.22Q56.63 11.06 56.49 10.93L56.49 10.93L56.49 10.93Q56.36 10.80 56.22 10.68L56.22 10.68L56.22 10.68Q56.08 10.57 55.95 10.45L55.95 10.45L55.95 10.45Q55.82 10.32 55.74 10.14L55.74 10.14L55.74 10.14Q55.56 10.12 55.43 10.04L55.43 10.04L55.43 10.04Q55.29 9.97 55.16 9.89L55.16 9.89L55.16 9.89Q55.03 9.82 54.89 9.75L54.89 9.75L54.89 9.75Q54.74 9.68 54.55 9.67L54.55 9.67L54.55 9.67Q54.25 9.52 54.01 9.45L54.01 9.45L54.01 9.45Q53.77 9.38 53.65 9.27L53.65 9.27L53.65 9.27Q53.55 9.27 53.50 9.31L53.50 9.31L53.50 9.31Q53.63 9.83 53.70 10.29L53.70 10.29L53.70 10.29Q53.77 10.75 53.78 11.20L53.78 11.20L53.78 11.20Q53.79 11.66 53.73 12.14L53.73 12.14L53.73 12.14Q53.68 12.62 53.58 13.18L53.58 13.18L53.58 13.18Q53.72 13.17 53.83 13.12L53.83 13.12L53.83 13.12Q53.95 13.07 54.07 13.02L54.07 13.02L54.07 13.02Q54.18 12.96 54.31 12.91L54.31 12.91L54.31 12.91Q54.44 12.87 54.62 12.85L54.62 12.85L54.62 12.85Q54.66 12.77 54.74 12.71L54.74 12.71L54.74 12.71Q54.81 12.66 54.88 12.59ZM65.83 7.83L65.83 7.83L65.83 7.83Q65.84 7.93 65.84 7.98L65.84 7.98L65.84 7.98Q65.83 8.03 65.82 8.07L65.82 8.07L65.82 8.07Q65.82 8.11 65.82 8.16L65.82 8.16L65.82 8.16Q65.82 8.20 65.84 8.30L65.84 8.30L65.84 8.30Q65.56 8.76 65.18 8.93L65.18 8.93L65.18 8.93Q64.80 9.11 64.37 9.18L64.37 9.18L64.37 9.18Q63.93 9.26 63.47 9.34L63.47 9.34L63.47 9.34Q63.01 9.42 62.56 9.69L62.56 9.69L62.56 9.69Q62.38 9.63 62.24 9.69L62.24 9.69L62.24 9.69Q62.10 9.76 61.82 9.73L61.82 9.73L61.82 9.73Q61.74 9.82 61.62 9.85L61.62 9.85L61.62 9.85Q61.50 9.88 61.37 9.93L61.37 9.93L61.37 9.93Q61.43 10.05 61.42 10.18L61.42 10.18L61.42 10.18Q61.41 10.31 61.46 10.39L61.46 10.39L61.46 10.39Q61.93 10.43 62.51 10.38L62.51 10.38L62.51 10.38Q63.10 10.32 63.66 10.31L63.66 10.31L63.66 10.31Q63.67 10.38 63.64 10.40L63.64 10.40L63.64 10.40Q63.62 10.42 63.63 10.47L63.63 10.47L63.63 10.47Q63.72 10.54 63.82 10.64L63.82 10.64L63.82 10.64Q63.92 10.75 64.01 10.84L64.01 10.84L64.01 10.84Q64.11 10.94 64.21 11.00L64.21 11.00L64.21 11.00Q64.31 11.06 64.45 11.05L64.45 11.05L64.45 11.05Q64.50 11.16 64.52 11.29L64.52 11.29L64.52 11.29Q64.54 11.42 64.49 11.55L64.49 11.55L64.49 11.55Q64.27 11.70 64.05 11.86L64.05 11.86L64.05 11.86Q63.83 12.02 63.59 12.14L63.59 12.14L63.59 12.14Q63.36 12.26 63.09 12.34L63.09 12.34L63.09 12.34Q62.82 12.41 62.49 12.40L62.49 12.40L62.49 12.40Q62.43 12.40 62.39 12.40L62.39 12.40L62.39 12.40Q62.36 12.40 62.30 12.36L62.30 12.36L62.30 12.36Q62.19 12.43 62.00 12.40L62.00 12.40L62.00 12.40Q61.80 12.37 61.69 12.44L61.69 12.44L61.69 12.44Q61.54 12.37 61.33 12.38L61.33 12.38L61.33 12.38Q61.11 12.39 60.95 12.33L60.95 12.33L60.95 12.33Q60.73 12.62 60.55 12.95L60.55 12.95L60.55 12.95Q60.38 13.28 60.24 13.64L60.24 13.64L60.24 13.64Q60.70 13.71 61.01 13.70L61.01 13.70L61.01 13.70Q61.32 13.69 61.59 13.65L61.59 13.65L61.59 13.65Q61.87 13.62 62.15 13.58L62.15 13.58L62.15 13.58Q62.44 13.55 62.88 13.56L62.88 13.56L62.88 13.56Q63.15 13.41 63.53 13.36L63.53 13.36L63.53 13.36Q63.90 13.32 64.22 13.21L64.22 13.21L64.22 13.21Q64.33 13.25 64.41 13.35L64.41 13.35L64.41 13.35Q64.49 13.45 64.57 13.54L64.57 13.54L64.57 13.54Q64.64 13.63 64.72 13.70L64.72 13.70L64.72 13.70Q64.80 13.77 64.93 13.75L64.93 13.75L64.93 13.75Q64.98 13.81 65.00 13.88L65.00 13.88L65.00 13.88Q65.02 13.96 65.04 14.03L65.04 14.03L65.04 14.03Q65.05 14.10 65.08 14.14L65.08 14.14L65.08 14.14Q65.12 14.19 65.20 14.18L65.20 14.18L65.20 14.18Q65.00 14.63 64.73 14.87L64.73 14.87L64.73 14.87Q64.46 15.11 64.12 15.23L64.12 15.23L64.12 15.23Q63.78 15.35 63.36 15.42L63.36 15.42L63.36 15.42Q62.95 15.49 62.44 15.59L62.44 15.59L62.44 15.59Q62.32 15.61 62.23 15.58L62.23 15.58L62.23 15.58Q62.15 15.54 62.04 15.54L62.04 15.54L62.04 15.54Q61.73 15.61 61.29 15.67L61.29 15.67L61.29 15.67Q60.85 15.72 60.40 15.71L60.40 15.71L60.40 15.71Q59.95 15.70 59.54 15.59L59.54 15.59L59.54 15.59Q59.13 15.49 58.87 15.23L58.87 15.23L58.87 15.23Q58.76 15.13 58.73 15.00L58.73 15.00L58.73 15.00Q58.69 14.88 58.54 14.81L58.54 14.81L58.54 14.81Q58.53 14.63 58.49 14.41L58.49 14.41L58.49 14.41Q58.45 14.19 58.41 13.95L58.41 13.95L58.41 13.95Q58.37 13.71 58.34 13.48L58.34 13.48L58.34 13.48Q58.32 13.25 58.37 13.06L58.37 13.06L58.37 13.06Q58.41 12.85 58.54 12.69L58.54 12.69L58.54 12.69Q58.67 12.52 58.63 12.33L58.63 12.33L58.63 12.33Q58.69 12.32 58.71 12.26L58.71 12.26L58.71 12.26Q58.72 12.20 58.82 12.21L58.82 12.21L58.82 12.21Q58.90 11.96 58.99 11.74L58.99 11.74L58.99 11.74Q59.09 11.53 59.19 11.32L59.19 11.32L59.19 11.32Q59.29 11.12 59.40 10.90L59.40 10.90L59.40 10.90Q59.50 10.69 59.60 10.43L59.60 10.43L59.60 10.43Q59.40 10.25 59.32 10.04L59.32 10.04L59.32 10.04Q59.23 9.83 59.19 9.62L59.19 9.62L59.19 9.62Q59.14 9.41 59.12 9.18L59.12 9.18L59.12 9.18Q59.09 8.96 59.02 8.72L59.02 8.72L59.02 8.72Q59.16 8.52 59.36 8.39L59.36 8.39L59.36 8.39Q59.55 8.26 59.79 8.18L59.79 8.18L59.79 8.18Q60.02 8.09 60.29 8.04L60.29 8.04L60.29 8.04Q60.57 7.98 60.87 7.92L60.87 7.92L60.87 7.92Q61.41 7.74 61.84 7.64L61.84 7.64L61.84 7.64Q62.28 7.55 62.69 7.49L62.69 7.49L62.69 7.49Q63.11 7.42 63.56 7.37L63.56 7.37L63.56 7.37Q64.01 7.31 64.59 7.21L64.59 7.21L64.59 7.21Q64.71 7.33 64.82 7.33L64.82 7.33L64.82 7.33Q64.87 7.21 64.95 7.25L64.95 7.25L64.95 7.25Q65.02 7.30 65.01 7.18L65.01 7.18L65.01 7.18Q65.15 7.41 65.36 7.57L65.36 7.57L65.36 7.57Q65.57 7.72 65.83 7.83Z"></path></g><defs data-v-423bf9ae=""><linearGradient data-v-423bf9ae="" gradientTransform="rotate(25)" id="1edd5292-6456-454f-a99f-82ad7c91d8fd" x1="0%" y1="0%" x2="100%" y2="0%"><stop data-v-423bf9ae="" offset="0%" style="stop-color: rgb(252, 95, 255); stop-opacity: 1;"></stop><stop data-v-423bf9ae="" offset="100%" style="stop-color: rgb(134, 237, 255); stop-opacity: 1;"></stop></linearGradient></defs><g data-v-423bf9ae="" id="8f803619-f9a7-41fc-9880-e878372f32e9" transform="matrix(1.1824990051012991,0,0,1.1824990051012991,-2.6200662148527556,-13.163343223179076)" stroke="none" fill="url(#1edd5292-6456-454f-a99f-82ad7c91d8fd)"><circle cx="49.969" cy="72.504" r="1.846"></circle><path d="M94.637 11.854H5.38c-1.563 0-2.91 1.189-2.91 2.752V74.213c0 1.563 1.347 2.877 2.91 2.877h35.146c-.041.896-.321 4.756-2.155 6.623-1.445 1.475-3.453 2.854-2.669 3.563.19.437 1.091.688 3.14.688h23.122c2.334 0 3.149-.383 3.158-.952h-.08v-.189h-.082c-.104-.77-1.662-1.906-2.84-3.105-1.834-1.867-2.113-5.725-2.154-6.621h34.675c1.563 0 2.83-1.314 2.83-2.879V14.607c-.002-1.565-1.271-2.753-2.834-2.753zM36.654 35.729v1.461h-4.169v-1.461h4.169zm-25.5-1.054v-1.462h6.97v1.462h-6.97zm4.169 1.054v1.461h-4.169v-1.461h4.169zM21.545 20.9v1.463H11.154V20.9h10.391zm-10.391-1v-1.463h4.169V19.9h-4.169zm13.855 3.463v1.462H11.154v-1.462h13.855zm-3.464 2.463v1.462H11.154v-1.462h10.391zm0 2.462v1.462H11.154v-1.462h10.391zm-6.222 2.462v1.462h-4.169V30.75h4.169zm1.027 4.979h15.136v1.461H16.35v-1.461zm-7.459-1.054v-1.462h1.263v1.462H8.891zm1.263 1v1.462H8.891v-1.462h1.263zm-1.263-3.463V30.75h1.263v1.462H8.891zm0-2.462v-1.462h1.263v1.462H8.891zm0-2.462v-1.462h1.263v1.462H8.891zm0-2.463v-1.462h1.263v1.462H8.891zm0-2.462V20.9h1.263v1.463H8.891zm0-2.463v-1.463h1.263V19.9H8.891zm41.078 54.45a1.846 1.846 0 1 1 0-3.692 1.847 1.847 0 1 1 0 3.692zm43.494-9.655H6.477V39.771h86.986v24.924z"></path><path d="M9.06 56.941h18.838v2.053H9.06zM30.114 56.941h18.838v2.053H30.114zM51.168 56.941h18.838v2.053H51.168zM72.223 56.941h18.838v2.053H72.223zM9.06 43.751h18.838v10.915H9.06zM30.114 43.751h18.838v10.915H30.114zM51.168 43.751h18.838v10.915H51.168zM72.223 43.751h18.838v10.915H72.223z"></path></g><!----></svg>